<svg xmlns="http://www.w3.org/2000/svg" width="681" height="366" viewBox="0 0 681 366">
<g>
<path d="M 391.74 200.60 C390.86,199.71 389.85,198.09 389.50,196.99 C389.15,195.90 388.45,195.00 387.93,195.00 C386.71,195.00 386.72,189.68 387.94,188.45 C388.46,187.93 389.16,185.94 389.50,184.04 C390.11,180.52 390.59,179.70 395.00,174.60 C401.37,167.23 406.35,163.20 413.63,159.53 C420.18,156.23 422.52,155.56 427.58,155.53 C432.67,155.51 434.34,155.97 437.78,158.35 L 441.90 161.21 L 445.01 158.99 C446.72,157.78 448.25,156.94 448.41,157.14 C450.93,160.20 450.67,161.66 446.00,170.95 C438.52,185.82 437.34,192.09 441.31,195.83 C443.98,198.33 451.06,198.84 452.87,196.66 C453.48,195.93 455.74,194.80 457.90,194.15 C460.05,193.50 463.25,191.63 465.01,189.99 C466.77,188.34 468.54,187.00 468.95,187.00 C469.36,187.00 473.40,183.40 477.94,179.00 C482.48,174.60 486.48,170.99 486.84,170.98 C487.21,170.97 490.09,168.49 493.25,165.48 C498.49,160.49 502.00,158.64 502.00,160.86 C502.00,161.69 483.23,179.60 476.00,185.67 C457.91,200.85 444.52,205.70 438.52,199.25 C434.67,195.10 432.47,185.06 435.07,183.46 C435.66,183.09 435.91,182.21 435.64,181.50 C435.36,180.78 435.42,179.91 435.77,179.56 C436.76,178.57 437.17,174.00 436.27,174.00 C435.30,174.00 428.52,179.73 421.00,186.89 C409.42,197.92 395.56,204.42 391.74,200.60 ZM 277.75 237.76 C275.69,237.15 274.00,236.28 274.00,235.82 C274.00,235.37 273.34,235.00 272.54,235.00 C268.61,235.00 260.18,221.83 258.86,213.62 C257.75,206.75 258.24,201.52 261.21,188.50 C263.26,179.48 268.66,162.94 269.86,162.00 C270.21,161.73 270.64,160.82 270.82,160.00 C271.38,157.30 278.33,144.00 279.18,144.00 C279.63,144.00 279.91,143.66 279.79,143.25 C279.46,142.02 282.97,136.00 284.03,136.00 C284.56,136.00 285.00,135.32 285.00,134.50 C285.00,133.68 285.45,133.00 286.00,133.00 C286.55,133.00 287.00,132.40 287.00,131.67 C287.00,130.94 289.25,127.90 291.99,124.92 C294.74,121.94 296.99,119.25 296.99,118.95 C297.01,117.57 315.49,100.38 324.50,93.35 C330.00,89.06 334.65,85.20 334.83,84.77 C335.02,84.35 335.74,84.00 336.45,84.00 C337.15,84.00 339.35,82.71 341.33,81.13 C343.31,79.56 346.41,77.70 348.22,77.00 C350.02,76.31 353.36,74.88 355.62,73.84 C360.28,71.70 379.41,69.63 384.99,70.67 C393.49,72.24 399.53,78.30 401.42,87.15 C402.65,92.88 398.81,104.50 391.89,116.00 C385.53,126.57 372.30,137.50 360.52,141.91 C353.61,144.49 353.33,144.49 351.94,141.89 C350.40,139.02 351.65,138.07 357.90,137.33 C360.79,136.98 363.77,136.09 364.51,135.34 C365.26,134.59 367.88,133.13 370.32,132.08 C372.77,131.03 375.46,129.18 376.31,127.97 C377.16,126.76 379.23,124.93 380.92,123.90 C382.62,122.87 384.00,121.54 384.00,120.95 C384.00,120.35 385.61,118.34 387.59,116.48 C389.56,114.62 390.92,112.68 390.61,112.18 C390.30,111.68 390.93,110.47 392.00,109.50 C393.07,108.53 393.71,107.34 393.42,106.87 C393.12,106.39 393.39,106.00 394.00,106.00 C394.61,106.00 394.84,105.55 394.50,105.00 C394.16,104.45 394.41,104.00 395.05,104.00 C395.69,104.00 395.97,103.35 395.66,102.56 C395.36,101.78 395.61,100.96 396.22,100.76 C396.83,100.56 397.52,98.61 397.74,96.44 C398.81,86.05 397.43,82.08 391.28,77.85 C387.11,74.98 386.18,74.76 378.15,74.77 C363.30,74.80 350.68,79.26 336.50,89.48 C302.19,114.23 281.01,142.56 267.93,181.22 C265.36,188.79 264.69,192.62 264.28,202.00 C263.97,209.09 264.22,215.11 264.92,217.71 C266.43,223.32 271.58,229.84 276.50,232.40 C281.42,234.96 293.94,235.78 300.79,233.99 C303.38,233.31 306.58,232.62 307.90,232.45 C309.21,232.28 310.63,231.60 311.03,230.94 C311.44,230.28 312.24,230.03 312.81,230.38 C313.37,230.73 314.47,230.39 315.23,229.63 C317.11,227.75 324.56,224.00 326.41,224.00 C327.23,224.00 328.26,223.41 328.70,222.69 C329.14,221.98 331.52,220.35 334.00,219.09 C339.18,216.45 352.00,206.38 352.00,204.96 C352.00,204.43 352.58,204.00 353.29,204.00 C354.00,204.00 356.57,201.98 359.00,199.50 C363.11,195.31 366.00,193.82 366.00,195.88 C366.00,196.77 353.54,208.24 347.47,212.93 C335.39,222.28 332.46,224.31 326.34,227.59 C322.58,229.61 319.05,231.58 318.50,231.98 C317.95,232.39 313.90,233.96 309.50,235.49 C300.48,238.62 284.50,239.76 277.75,237.76 ZM 519.27 206.35 C516.92,205.84 509.97,199.10 508.82,196.21 C506.66,190.79 509.70,174.16 513.55,170.30 C514.35,169.51 515.00,168.40 515.00,167.84 C515.00,167.28 517.36,164.54 520.25,161.75 C525.59,156.59 533.18,152.38 535.06,153.53 C535.62,153.89 536.76,153.62 537.58,152.94 C538.72,151.99 539.59,151.97 541.28,152.85 C542.50,153.48 544.40,154.13 545.50,154.30 C546.74,154.48 547.86,154.83 548.87,155.36 C548.37,155.19 548.10,155.34 548.26,155.97 C548.39,156.46 547.60,157.60 546.50,158.50 C545.40,159.41 545.05,159.87 545.73,159.53 C546.38,159.20 547.25,159.27 548.12,159.62 C547.02,159.36 545.82,159.73 544.66,160.80 C543.47,161.88 541.55,163.06 540.38,163.41 C533.19,165.58 532.47,177.01 539.32,180.38 C542.87,182.14 543.55,182.23 546.70,181.38 C551.51,180.09 554.13,171.40 551.87,164.24 C551.43,162.85 550.85,161.74 550.17,160.96 C550.78,161.55 551.26,162.25 551.50,163.00 C551.85,164.10 552.38,165.00 552.67,165.00 C552.97,165.00 552.97,164.35 552.66,163.56 C552.36,162.78 552.61,161.96 553.21,161.76 C553.81,161.56 553.75,160.79 553.06,159.55 C555.27,163.37 556.48,169.39 556.96,178.20 C557.07,180.27 565.71,177.35 569.50,173.96 C570.60,172.98 573.89,171.40 576.81,170.45 C579.74,169.50 582.69,168.16 583.38,167.48 C585.02,165.84 598.92,160.83 600.00,161.50 C600.45,161.78 600.98,161.63 601.16,161.16 C601.35,160.69 603.41,160.05 605.75,159.75 C608.91,159.33 610.00,159.53 610.00,160.53 C610.00,161.89 609.15,162.27 603.00,163.62 C598.54,164.60 599.16,164.39 594.50,166.43 C562.74,180.31 554.62,184.60 549.29,190.30 C540.62,199.55 537.83,202.05 533.90,204.05 C529.85,206.12 523.11,207.17 519.27,206.35 ZM 404.00 196.00 C405.10,194.90 406.38,194.00 406.84,194.00 C408.35,194.00 423.33,180.71 431.37,172.25 C436.28,167.08 437.13,165.66 436.60,163.55 C435.82,160.42 432.75,159.55 425.62,160.44 C410.53,162.33 395.28,176.34 392.35,191.01 C391.12,197.15 399.34,200.66 404.00,196.00 ZM 122.00 225.25 C122.00,224.83 123.17,221.34 124.59,217.50 C126.02,213.65 127.55,209.28 128.01,207.78 C128.47,206.29 129.20,204.49 129.64,203.78 C130.08,203.08 130.53,201.93 130.64,201.23 C130.74,200.54 132.62,195.14 134.80,189.23 C136.99,183.33 141.59,170.62 145.03,161.00 C148.46,151.38 151.49,142.94 151.74,142.25 C152.14,141.20 161.00,140.30 161.00,141.31 C161.00,141.84 155.38,158.00 151.72,168.00 C149.80,173.23 145.90,184.02 143.04,192.00 C140.18,199.98 136.23,210.89 134.27,216.25 L 130.69 226.00 L 126.35 226.00 C123.96,226.00 122.00,225.66 122.00,225.25 ZM 169.76 212.25 C169.14,210.97 169.65,204.37 170.47,203.05 C170.90,202.36 172.76,201.16 174.62,200.38 C176.48,199.61 178.00,198.55 178.00,198.03 C178.00,197.51 180.14,195.85 182.75,194.35 C185.36,192.84 188.82,190.35 190.44,188.81 C192.06,187.26 194.64,185.44 196.19,184.76 C198.97,183.53 200.08,181.00 197.85,181.00 C196.57,181.00 178.43,169.57 176.24,167.39 C175.48,166.62 174.36,166.00 173.76,166.00 C170.92,166.00 169.21,162.88 169.74,158.69 C170.03,156.38 170.39,154.36 170.54,154.18 C170.68,154.01 175.91,157.20 182.15,161.27 C188.39,165.34 197.47,171.23 202.31,174.36 C207.44,177.66 210.52,179.54 210.78,181.75 C211.15,185.00 205.40,188.95 191.00,199.15 C180.27,206.74 171.19,212.96 170.81,212.98 C170.43,212.99 169.96,212.66 169.76,212.25 ZM 106.00 209.93 C101.67,206.40 100.63,205.66 90.20,198.61 C84.59,194.82 80.00,191.33 80.00,190.86 C80.00,190.39 79.54,190.00 78.98,190.00 C78.42,190.00 76.14,188.80 73.93,187.33 C68.65,183.84 68.83,180.79 74.50,177.69 C76.70,176.48 78.72,175.25 79.00,174.93 C80.14,173.64 88.93,168.00 89.81,168.00 C90.33,168.00 91.37,167.25 92.13,166.34 C92.88,165.42 95.30,163.88 97.50,162.90 C99.70,161.92 102.40,160.29 103.50,159.28 C104.93,157.96 106.73,156.57 108.25,155.54 C107.91,155.92 108.24,156.15 109.28,156.55 C112.25,157.69 111.43,162.50 107.75,165.55 L 104.50 168.25 L 108.00 166.17 C111.17,164.29 111.53,163.62 111.80,159.05 C111.87,157.91 111.90,156.99 111.88,156.28 C111.96,157.02 112.00,157.91 112.00,158.85 L 112.00 163.70 L 98.93 172.10 C91.74,176.72 85.17,180.98 84.33,181.56 C82.77,182.64 86.26,185.47 105.69,198.92 C111.68,203.07 111.87,203.33 111.69,207.34 C111.47,212.19 109.75,212.98 106.00,209.93 ZM 532.32 201.10 C534.12,200.88 543.50,190.34 543.21,188.85 C543.04,187.98 541.24,186.49 539.20,185.54 C533.23,182.77 530.81,178.93 530.80,172.23 C530.79,168.88 531.45,165.25 532.38,163.50 C535.44,157.74 528.33,159.68 522.42,166.22 C516.63,172.63 513.00,181.35 513.00,188.85 C513.00,194.68 513.26,195.46 516.25,198.44 C519.27,201.45 519.92,201.66 525.50,201.44 C528.80,201.31 531.87,201.16 532.32,201.10 ZM 528.92 294.82 C528.35,292.64 528.49,288.92 529.25,285.91 C530.18,282.26 530.27,282.20 534.84,282.35 L 539.49 282.50 L 539.49 278.59 C539.50,274.04 537.30,272.48 536.82,276.69 C536.56,279.02 535.97,279.55 533.38,279.80 L 530.27 280.11 L 533.63 263.50 L 537.47 263.74 C539.58,263.87 541.50,264.17 541.74,264.41 C542.72,265.38 546.21,285.01 545.66,286.44 C545.22,287.59 543.62,288.00 539.59,288.00 C534.16,288.00 534.12,288.02 533.81,291.25 C533.57,293.74 532.97,294.57 531.25,294.82 C530.01,295.00 528.96,295.00 528.92,294.82 ZM 430.68 294.25 C430.44,293.84 430.84,291.25 431.58,288.50 C432.31,285.75 432.93,283.25 432.96,282.94 C432.98,282.63 435.09,282.40 437.64,282.44 C441.67,282.49 442.32,282.21 442.62,280.28 C442.82,279.07 442.48,276.82 441.87,275.28 C440.73,272.43 440.61,272.53 439.57,277.25 C439.10,279.39 438.39,280.00 436.35,280.00 C433.80,280.00 433.75,279.87 434.37,275.30 C434.73,272.71 435.55,269.11 436.21,267.30 C437.27,264.38 437.82,264.00 441.10,264.00 L 444.80 264.00 L 446.55 271.75 C447.52,276.01 448.35,281.30 448.40,283.50 L 448.50 287.50 L 442.75 287.80 C437.91,288.05 437.00,288.40 437.00,289.97 C437.00,293.33 435.83,295.00 433.45,295.00 C432.17,295.00 430.92,294.66 430.68,294.25 ZM 470.46 291.26 C469.48,289.21 468.54,286.31 468.37,284.82 C468.19,283.32 466.46,278.99 464.53,275.18 C460.26,266.82 459.99,264.00 463.43,264.00 C465.52,264.00 466.25,265.02 468.75,271.51 C470.35,275.64 471.95,278.71 472.33,278.34 C472.70,277.97 473.00,274.59 473.00,270.83 C473.00,264.21 473.08,264.00 475.50,264.00 L 478.00 264.00 L 478.00 295.00 L 475.11 295.00 C472.76,295.00 471.90,294.31 470.46,291.26 ZM 348.22 291.07 C348.37,288.84 348.84,287.00 349.25,287.00 C349.66,287.00 350.00,286.12 350.00,285.05 C350.00,283.44 350.82,283.06 354.75,282.80 L 359.50 282.50 L 359.24 279.00 C358.79,273.10 357.91,272.12 356.55,276.00 C355.64,278.64 354.69,279.58 352.71,279.81 C350.65,280.06 350.16,279.74 350.41,278.31 C353.14,262.93 353.18,262.81 355.38,263.40 C356.55,263.72 358.45,263.98 359.61,263.99 C361.48,264.00 361.95,265.18 363.85,274.66 C366.34,287.11 366.03,288.00 359.08,288.00 C354.68,288.00 354.36,288.18 353.46,291.25 C352.79,293.50 351.80,294.60 350.22,294.82 C348.13,295.12 347.96,294.81 348.22,291.07 ZM 416.52 293.75 C415.17,289.68 414.14,284.58 414.53,283.95 C414.78,283.54 414.32,282.95 413.49,282.64 C411.19,281.75 411.60,278.00 414.00,278.00 C415.70,278.00 416.00,277.33 416.00,273.61 C416.00,269.80 415.68,269.14 413.59,268.61 C411.78,268.16 411.32,267.51 411.71,266.00 C412.40,263.37 418.01,263.25 420.35,265.83 C422.49,268.19 422.61,277.66 420.53,279.96 C419.25,281.38 419.25,282.17 420.53,286.45 C422.66,293.51 422.47,295.00 419.47,295.00 C418.08,295.00 416.75,294.44 416.52,293.75 ZM 558.25 292.38 C556.19,290.14 556.00,288.96 556.00,278.54 C556.00,267.42 556.06,267.09 558.63,265.07 C562.27,262.21 565.00,262.35 565.00,265.39 C565.00,266.71 564.33,268.05 563.50,268.36 C561.23,269.23 561.29,289.00 563.57,289.00 C564.69,289.00 565.04,289.79 564.82,291.75 C564.40,295.36 561.26,295.66 558.25,292.38 ZM 504.36 293.50 C504.05,292.67 503.16,292.00 502.39,292.00 C501.27,292.00 501.00,289.47 501.00,279.17 C501.00,266.85 501.09,266.30 503.25,265.26 C508.09,262.94 509.00,262.95 509.00,265.33 C509.00,266.58 508.58,268.03 508.07,268.55 C506.60,270.04 506.36,288.29 507.80,288.77 C508.46,288.99 509.00,290.48 509.00,292.08 C509.00,294.35 508.55,295.00 506.97,295.00 C505.85,295.00 504.68,294.33 504.36,293.50 ZM 567.67 294.33 C566.46,293.13 566.97,289.23 568.40,288.68 C570.38,287.92 570.34,269.34 568.35,268.58 C567.61,268.30 567.00,266.92 567.00,265.53 C567.00,263.54 567.50,263.00 569.35,263.00 C574.06,263.00 575.00,265.59 575.00,278.65 C575.00,289.90 574.86,290.79 572.69,292.83 C570.31,295.06 568.84,295.50 567.67,294.33 ZM 378.25 292.36 C376.19,290.13 376.00,288.97 376.00,278.32 C376.00,265.81 376.69,264.10 381.75,264.03 C384.21,264.00 384.86,266.74 382.87,268.73 C382.25,269.35 381.60,273.96 381.43,278.98 C381.18,286.22 381.41,288.22 382.56,288.66 C383.35,288.97 384.00,290.51 384.00,292.11 C384.00,295.74 381.48,295.85 378.25,292.36 ZM 387.67 294.33 C386.36,293.02 386.99,289.00 388.50,289.00 C389.73,289.00 390.00,287.22 390.00,278.97 C390.00,270.97 389.70,268.82 388.50,268.36 C386.35,267.54 386.65,264.33 388.93,263.73 C390.12,263.42 391.66,264.07 392.93,265.43 C394.78,267.39 395.00,268.88 395.00,279.14 C395.00,289.88 394.84,290.80 392.69,292.83 C390.31,295.06 388.84,295.50 387.67,294.33 ZM 327.84 288.54 C328.06,284.10 327.80,282.00 327.03,282.00 C326.40,282.00 326.14,281.58 326.46,281.07 C326.77,280.56 326.57,279.85 326.00,279.50 C325.43,279.15 325.23,278.44 325.54,277.93 C325.86,277.42 325.61,277.00 325.00,277.00 C324.39,277.00 324.19,276.50 324.57,275.89 C324.95,275.28 324.82,274.49 324.29,274.14 C323.30,273.49 319.76,263.91 320.30,263.36 C320.47,263.20 321.87,263.41 323.43,263.82 C325.91,264.49 326.67,265.72 329.67,274.03 C332.32,281.36 333.02,284.72 332.79,288.99 C332.52,294.03 332.29,294.53 330.00,294.79 C327.53,295.09 327.50,295.01 327.84,288.54 ZM 295.74 279.25 C293.51,276.92 293.16,275.77 293.43,271.70 C293.75,266.87 295.31,264.71 299.25,263.66 C300.62,263.29 301.00,263.81 301.00,266.09 C301.00,267.69 300.55,269.00 300.00,269.00 C298.59,269.00 298.75,274.35 300.20,275.80 C300.86,276.46 303.06,277.00 305.09,277.00 C307.55,277.00 308.99,277.53 309.40,278.59 C310.41,281.24 309.13,282.00 303.63,282.00 C299.20,282.00 297.96,281.57 295.74,279.25 ZM 296.00 293.00 C294.90,291.90 294.00,290.36 294.00,289.58 C294.00,288.80 293.73,287.45 293.39,286.58 C292.92,285.36 293.46,285.00 295.78,285.00 C297.96,285.00 298.91,285.56 299.31,287.07 C300.09,290.08 305.37,289.41 305.82,286.25 C306.07,284.50 306.79,284.00 309.07,284.00 C311.65,284.00 312.00,284.35 312.00,286.95 C312.00,291.56 307.92,295.00 302.45,295.00 C299.33,295.00 297.40,294.40 296.00,293.00 ZM 435.00 133.24 C435.00,130.75 448.28,117.52 454.05,114.28 C460.93,110.41 461.47,112.38 455.02,117.85 C452.01,120.41 446.52,125.31 442.81,128.75 C439.11,132.19 435.84,135.00 435.54,135.00 C435.24,135.00 435.00,134.21 435.00,133.24 ZM 459.67 290.80 C459.36,288.44 459.13,282.67 459.17,278.00 L 459.24 269.50 L 461.81 275.00 C463.77,279.19 464.39,282.16 464.44,287.50 C464.49,293.90 464.32,294.53 462.37,294.80 C460.55,295.06 460.16,294.48 459.67,290.80 ZM 404.00 273.00 C404.00,263.12 404.03,263.00 406.39,263.00 C406.61,263.00 406.81,263.01 407.00,263.05 C406.88,263.03 406.76,263.03 406.64,263.03 C404.71,263.06 404.67,263.16 406.25,264.08 C407.68,264.92 408.00,266.53 408.00,273.05 C408.00,279.24 407.69,281.00 406.58,281.00 C405.80,281.00 404.94,280.44 404.66,279.75 C404.43,279.16 404.20,279.40 404.11,280.25 C404.00,278.77 404.00,276.50 404.00,273.00 ZM 511.79 292.04 C511.52,290.17 511.85,288.89 512.68,288.57 C513.41,288.29 514.00,287.15 514.00,286.03 C514.00,283.71 514.37,283.59 517.07,285.04 C519.69,286.44 519.50,290.18 516.69,292.83 C513.56,295.76 512.31,295.56 511.79,292.04 ZM 305.15 269.55 C303.73,265.61 304.24,264.00 306.90,264.00 C311.87,264.00 313.80,272.23 308.97,272.80 C306.87,273.04 306.22,272.49 305.15,269.55 ZM 514.00 271.06 C514.00,269.99 513.55,268.84 513.00,268.50 C512.45,268.16 512.00,267.01 512.00,265.94 C512.00,264.58 512.69,264.00 514.30,264.00 C517.49,264.00 519.00,265.83 519.00,269.70 C519.00,272.55 518.66,273.00 516.50,273.00 C514.69,273.00 514.00,272.46 514.00,271.06 ZM 332.07 274.29 C331.35,271.67 331.38,269.47 332.18,266.79 C332.34,266.27 332.48,265.83 332.62,265.44 C332.20,267.14 332.33,267.21 333.30,266.00 C335.16,263.68 337.00,263.76 337.00,266.17 C337.00,268.58 337.22,268.48 338.89,265.27 L 337.09 270.50 C336.51,272.18 335.92,273.73 335.40,274.98 C335.46,274.76 335.53,274.54 335.59,274.33 C336.05,272.94 335.95,272.83 335.21,273.88 C334.67,274.64 333.72,274.95 333.11,274.57 C332.51,274.20 332.18,274.09 332.08,274.31 C332.07,274.31 332.07,274.30 332.07,274.29 ZM 404.14 289.93 C404.10,288.78 404.07,287.89 404.08,287.20 C404.26,287.75 404.78,287.65 406.00,287.00 C407.84,286.01 408.00,286.24 408.00,289.88 C408.00,292.11 407.45,294.05 406.75,294.34 C406.00,294.64 406.20,294.87 407.25,294.92 C407.33,294.92 407.41,294.92 407.49,294.92 C407.23,294.97 406.95,295.00 406.66,295.00 C404.53,295.00 404.30,294.53 404.14,289.93 ZM 361.92 294.25 C361.88,293.84 361.70,292.71 361.51,291.75 C361.26,290.42 361.85,290.00 363.98,290.00 C366.73,290.00 368.61,292.21 367.44,294.09 C366.77,295.18 362.03,295.32 361.92,294.25 ZM 445.21 294.46 C445.61,294.06 445.46,292.87 444.89,291.80 C443.95,290.04 444.16,289.89 447.18,290.18 C449.73,290.43 450.50,290.97 450.50,292.50 C450.50,293.98 449.72,294.59 447.50,294.84 C445.85,295.02 444.82,294.85 445.21,294.46 ZM 543.00 294.15 C543.00,293.61 542.71,292.42 542.36,291.50 C541.84,290.15 542.27,289.90 544.61,290.17 C548.26,290.59 548.77,294.32 545.25,294.82 C544.01,295.00 543.00,294.69 543.00,294.15 ZM 334.46 263.20 C334.97,263.04 335.62,263.00 336.49,263.00 L 339.67 263.00 L 339.50 263.49 C339.35,263.04 338.52,263.00 336.65,263.00 C335.72,263.00 335.01,263.06 334.46,263.20 ZM 110.59 154.18 C110.86,154.06 111.08,154.00 111.22,154.00 C111.35,154.00 111.48,154.20 111.59,154.56 C111.38,154.17 111.06,154.06 110.59,154.18 ZM 404.46 285.40 C404.82,284.99 405.48,285.04 406.64,285.17 C405.57,285.06 404.87,285.12 404.46,285.40 ZM 333.93 277.92 C333.88,277.97 333.83,278.00 333.80,278.00 C333.67,278.00 333.50,277.82 333.31,277.51 C333.51,277.70 333.73,277.84 333.93,277.92 ZM 408.79 264.69 C409.44,266.47 409.48,269.92 409.16,276.25 C409.48,269.99 409.42,266.49 408.79,264.69 ZM 406.41 283.00 C405.79,283.00 405.33,282.99 404.99,282.81 C405.34,282.94 405.80,283.00 406.41,283.00 Z" fill="rgba(255, 255, 255, 1)"/>
<path d="M 406.75 294.34 C407.45,294.05 408.00,292.11 408.00,289.88 C408.00,286.24 407.84,286.01 406.00,287.00 C404.39,287.86 404.00,287.76 404.00,286.47 C404.00,285.31 404.76,284.95 406.75,285.18 C409.56,285.51 409.71,286.06 409.10,293.75 C409.04,294.44 408.21,294.96 407.25,294.92 C406.20,294.87 406.00,294.64 406.75,294.34 ZM 404.08 280.75 C404.12,279.51 404.38,279.06 404.66,279.75 C404.94,280.44 405.80,281.00 406.58,281.00 C407.69,281.00 408.00,279.24 408.00,273.05 C408.00,266.53 407.68,264.92 406.25,264.08 C404.67,263.16 404.71,263.06 406.64,263.03 C409.17,262.99 409.69,265.72 409.16,276.25 C408.85,282.63 408.70,283.00 406.41,283.00 C404.55,283.00 404.02,282.48 404.08,280.75 ZM 332.61 276.42 C331.74,274.17 331.85,273.79 333.11,274.57 C333.72,274.95 334.67,274.64 335.21,273.88 C335.95,272.83 336.05,272.94 335.59,274.33 C335.27,275.34 335.00,276.58 335.00,277.08 C335.00,278.60 333.26,278.12 332.61,276.42 ZM 337.00 266.17 C337.00,263.76 335.16,263.68 333.30,266.00 C332.30,267.25 332.19,267.13 332.67,265.25 C333.12,263.47 333.94,263.00 336.65,263.00 C339.88,263.00 340.00,263.13 338.90,265.25 C337.22,268.48 337.00,268.59 337.00,266.17 ZM 107.75 165.55 C111.43,162.50 112.25,157.69 109.28,156.55 C107.80,155.99 107.77,155.76 109.03,154.96 C111.67,153.29 112.11,153.93 111.80,159.05 C111.53,163.62 111.17,164.29 108.00,166.17 L 104.50 168.25 L 107.75 165.55 ZM 551.50 163.00 C550.75,160.63 547.47,158.65 545.73,159.53 C545.05,159.87 545.40,159.41 546.50,158.50 C547.60,157.60 548.39,156.46 548.26,155.97 C547.79,154.19 550.92,156.23 552.59,158.78 C553.70,160.48 553.92,161.53 553.21,161.76 C552.61,161.96 552.36,162.78 552.66,163.56 C552.97,164.35 552.97,165.00 552.67,165.00 C552.38,165.00 551.85,164.10 551.50,163.00 Z" fill="rgba(255, 255, 255, 1)"/>
</g>
</svg>
